<svg width="63" height="57" viewBox="0 0 63 57" fill="#2673F0" xmlns="http://www.w3.org/2000/svg">
<path fill-rule="evenodd" clip-rule="evenodd" d="M36.1381 0L63 27.3248L36.601 54.1778L33.3451 50.8659L27.3147 57L0 29.2119L26.395 2.35927L30.1064 6.13449L36.1381 0ZM32.3824 8.44961L40.7326 16.9434L37.0214 20.7185L46.7633 30.628L41.4502 36.0325L39.1742 33.7174L42.2114 30.628L34.7454 23.0336L31.7082 26.123L29.4323 23.8078L36.1807 16.9434L26.3952 6.98966L4.55165 29.2119L27.3149 52.3696L31.0691 48.5508L23.1913 40.5375L26.9025 36.7625L17.6244 27.3248L22.4737 22.3922L24.7497 24.7073L22.1764 27.3248L29.1785 34.4473L31.7518 31.8298L34.0278 34.145L27.7433 40.5375L36.601 49.5476L58.4481 27.3248L36.1379 4.6301L32.3824 8.44961Z" />
</svg>
