<svg width="1131" height="1024" viewBox="0 0 1131 1024" fill="none" xmlns="http://www.w3.org/2000/svg">
<path opacity="0.6" d="M824.575 -535.811C843.524 -554.731 874.21 -554.729 893.157 -535.808L1178.7 -250.65M824.575 -535.811L784.246 -495.543L772.622 -507.151M824.575 -535.811L849.566 -510.769M1178.7 -250.65L1153.7 -225.611M1178.7 -250.65C1197.69 -231.684 1197.69 -200.902 1178.7 -181.937L974.908 21.571L1257.67 303.954C1276.66 322.92 1276.66 353.702 1257.67 372.668L1062.53 567.539L1340.76 845.393C1359.75 864.359 1359.75 895.141 1340.76 914.107L1060.94 1193.53C1042 1212.45 1011.31 1212.45 992.361 1193.53L986.372 1187.55L946.06 1227.81C927.111 1246.73 896.422 1246.73 877.474 1227.81L596.518 947.2L556.668 986.996C537.72 1005.92 507.032 1005.92 488.084 986.996L482.095 981.015L441.783 1021.27C422.834 1040.19 392.145 1040.19 373.197 1021.27L82.0527 730.488C63.0638 711.522 63.0638 680.743 82.0526 661.778L292.809 451.283L16.2417 175.06C-2.74719 156.095 -2.74724 125.316 16.2416 106.35L296.008 -173.069C314.956 -191.993 345.645 -191.994 364.594 -173.071L376.217 -161.464L410.065 -195.259C410.52 -207.06 415.255 -218.726 424.27 -227.729L704.037 -507.148C722.984 -526.072 753.673 -526.073 772.622 -507.151M772.622 -507.151L747.63 -482.111M903.213 -376.74L834.312 -445.546M903.213 -376.74L878.22 -351.7L834.312 -445.546M903.213 -376.74C922.205 -357.775 922.205 -326.992 903.213 -308.026L891.703 -296.532L977.823 -210.532C996.815 -191.566 996.815 -160.783 977.822 -141.817L935.499 -99.5525L885.515 -149.632L912.094 -176.174L841.636 -246.535L814.975 -219.911L764.991 -269.99L837.484 -342.383L738.332 -441.399L491.747 -195.119L751.47 64.2554L774.246 41.5106L711.189 -21.4592M834.312 -445.546L858.863 -470.059L1112.97 -216.294L864.593 31.7382L776.918 -55.8162L843.672 -122.478L793.687 -172.558L772.765 -151.665L708.047 -216.294L728.887 -237.105L678.902 -287.184L642.318 -250.651C623.326 -231.685 623.326 -200.902 642.318 -181.937L722.699 -101.667L711.189 -90.1734C692.197 -71.2076 692.197 -40.4249 711.189 -21.4592M711.189 -21.4592L736.181 -46.499M722.638 -457.071L722.655 -457.054C722.649 -457.059 722.644 -457.065 722.638 -457.071ZM722.638 -457.071L738.331 -472.794M874.556 -485.728C874.549 -485.72 874.541 -485.713 874.534 -485.705L874.556 -485.728ZM874.556 -485.728L858.864 -501.451M927.838 -160.452C927.831 -160.458 927.825 -160.465 927.818 -160.472L927.838 -160.452ZM426.284 -111.466L449.086 -134.234L703.179 119.543L456.565 365.818L368.89 278.263L435.643 211.602L385.659 161.522L364.737 182.415L300.019 117.786L320.858 96.9748L270.874 46.8949L234.29 83.4284C215.298 102.394 215.298 133.177 234.29 152.143L314.67 232.412L303.161 243.906C284.169 262.872 284.169 293.655 303.161 312.62L366.218 375.59L341.681 400.092L81.9707 140.705L330.303 -107.319L429.455 -8.30396L356.963 64.0889L406.947 114.169L433.608 87.5445L504.065 157.905L477.487 184.447L527.471 234.527L569.794 192.262C588.786 173.296 588.786 142.514 569.794 123.548L483.675 37.5468L495.184 26.0532C514.176 7.08742 514.176 -23.6953 495.184 -42.6611L426.284 -111.466ZM147.782 696.133L396.114 448.108L495.266 547.123L422.774 619.516L472.758 669.596L499.419 642.972L569.876 713.332L543.298 739.874L593.282 789.954L635.605 747.69C654.597 728.724 654.597 697.941 635.605 678.975L549.486 592.974L560.995 581.481C579.987 562.515 579.987 531.732 560.995 512.766L492.095 443.961L516.646 419.448L770.751 673.213L522.376 921.245L434.701 833.691L501.454 767.029L451.47 716.949L430.548 737.842L365.83 673.213L386.669 652.402L336.685 602.322L300.101 638.856C281.109 657.822 281.109 688.604 300.101 707.57L380.481 787.84L368.972 799.333C349.98 818.299 349.98 849.082 368.972 868.048L432.029 931.017L407.492 955.52L147.782 696.133ZM911.769 1162.06L652.059 902.669L900.391 654.645L999.543 753.66L927.05 826.053L977.035 876.133L1003.7 849.509L1074.15 919.869L1047.57 946.411L1097.56 996.491L1139.88 954.226C1158.87 935.26 1158.87 904.478 1139.88 885.512L1053.76 799.511L1065.27 788.017C1084.26 769.052 1084.26 738.269 1065.27 719.303L996.372 650.498L1020.92 625.985L1275.03 879.749L1026.65 1127.78L938.978 1040.23L1005.73 973.566L955.747 923.486L934.825 944.379L870.107 879.75L890.946 858.939L840.962 808.859L804.378 845.393C785.386 864.358 785.386 895.141 804.378 914.107L884.758 994.377L873.249 1005.87C854.257 1024.84 854.257 1055.62 873.249 1074.58L936.305 1137.55L911.769 1162.06ZM1191.94 338.31L943.566 586.343L855.891 498.788L922.645 432.127L872.66 382.047L851.739 402.94L787.02 338.311L807.86 317.5L757.875 267.42L721.291 303.954C702.299 322.92 702.299 353.702 721.291 372.668L801.672 452.938L790.162 464.431C771.17 483.397 771.171 514.18 790.162 533.145L853.219 596.115L828.683 620.618L568.972 361.23L817.305 113.206L916.457 212.221L843.964 284.614L893.949 334.694L920.61 308.07L991.067 378.43L964.488 404.972L1014.47 455.052L1056.8 412.787C1075.79 393.822 1075.79 363.039 1056.8 344.073L970.676 258.072L982.186 246.578C1001.18 227.613 1001.18 196.83 982.186 177.864L913.286 109.059L937.836 84.5461L1191.94 338.31ZM411.807 432.435C411.8 432.442 411.794 432.448 411.787 432.455L411.807 432.435ZM345.996 -122.993C345.989 -122.986 345.983 -122.979 345.976 -122.973L345.996 -122.993Z" stroke="#1065EF" stroke-width="4"/>
</svg>
